Coordinates																	
version=1																	
nRows=35																	
nColumns=18																	
inDegrees=yes																	
																	
"Units are S.I. units (second, meters, Newtons, ...)"																	
Angles are in degrees.																	
																	
endheader																	
time	ground_thorax_rot_x	ground_thorax_rot_y	ground_thorax_rot_z	ground_thorax_tx	ground_thorax_ty	ground_thorax_tz	clav_prot	clav_elev	scapula_abduction	scapula_elevation	scapula_upward_rot	scapula_winging	plane_elv	shoulder_elv	axial_rot	elbow_flexion	pro_sup
2.63	0.089707273	-6.021557105	-10.68210783	-0.00423131	0.00403036	-0.00078352	-41.77794364	9.788089656	-6.186646278	-2.117725716	69.84766521	-12.13348314	25.39681513	87.91981452	3.104527982	0	34.32
2.64	0.08303902	-6.064780306	-10.68894708	-0.00423131	0.00403036	-0.00078352	-41.81846529	9.78288751	-6.093438224	-2.116025313	70.04475261	-12.14283397	25.65970169	87.97901842	3.03401264	0	34.32
2.65	0.07604713	-6.098319048	-10.69549622	-0.00423131	0.00403036	-0.00078352	-41.86324574	9.777515819	-6.007182549	-2.11457679	70.24205519	-12.15428522	25.91485216	88.03201121	2.966927335	0	34.32
2.66	0.068708883	-6.122470771	-10.7017591	-0.00423131	0.00403036	-0.00078352	-41.91059834	9.771397886	-5.926424662	-2.113700772	70.43769675	-12.16681761	26.15982338	88.07957897	2.901778998	0	34.32
2.67	0.060927019	-6.13848785	-10.70782395	-0.00423131	0.00403036	-0.00078352	-41.95836193	9.763767457	-5.848535093	-2.113795175	70.63020399	-12.1790747	26.39285451	88.12267036	2.837151683	0	34.32
2.68	0.052542712	-6.148435137	-10.71384909	-0.00423131	0.00403036	-0.00078352	-42.00416434	9.753823385	-5.770111893	-2.115248212	70.81860865	-12.18954732	26.613097	88.16229583	2.771902838	0	34.32
2.69	0.043347664	-6.154948616	-10.72005183	-0.00423131	0.00403036	-0.00078352	-42.04570699	9.740876312	-5.687481117	-2.118361533	71.00246904	-12.19677264	26.82075758	88.19944747	2.705274265	0	34.32
2.7	0.033093087	-6.160923093	-10.72670069	-0.00423131	0.00403036	-0.00078352	-42.08103162	9.724465196	-5.597220151	-2.123295166	71.18181527	-12.19951952	27.01713043	88.23504649	2.636908442	0	34.32
2.71	0.021496215	-6.169168472	-10.73410798	-0.00423131	0.00403036	-0.00078352	-42.1087331	9.704427818	-5.496624764	-2.13004128	71.35703616	-12.19693442	27.20450782	88.26991502	2.566783994	0	34.32
2.72	0.008247403	-6.182080635	-10.74261842	-0.00423131	0.00403036	-0.00078352	-42.12809062	9.680917421	-5.384049606	-2.138428707	71.52873471	-12.18862821	27.38597442	88.30476245	2.495103274	0	34.32
2.73	-0.00697792	-6.20137249	-10.75258994	-0.00423131	0.00403036	-0.00078352	-42.13910201	9.654366324	-5.259072717	-2.148155152	71.69758226	-12.17469344	27.5651066	88.34017472	2.422175312	0	34.32
2.74	-0.024498246	-6.227902928	-10.76436459	-0.00423131	0.00403036	-0.00078352	-42.14242105	9.625405804	-5.122464376	-2.158839691	71.86419869	-12.15565283	27.74561235	88.37659824	2.348336154	0	34.32
2.75	-0.044593134	-6.261627185	-10.77823061	-0.00423131	0.00403036	-0.00078352	-42.13921233	9.594758746	-4.975974132	-2.170084897	72.02907776	-12.13235039	27.93095663	88.41431566	2.273936208	0	34.32
2.76	-0.0674583	-6.301673765	-10.79437928	-0.00423131	0.00403036	-0.00078352	-42.13095084	9.563126273	-4.821980942	-2.181536247	72.19256565	-12.10580604	28.12402054	88.45341641	2.19940384	0	34.32
2.77	-0.093151953	-6.346533686	-10.81286275	-0.00423131	0.00403036	-0.00078352	-42.11920112	9.531090702	-4.663074078	-2.192926902	72.3548889	-12.07705999	28.32683789	88.49376888	2.125371131	0	34.32
2.78	-0.121539434	-6.394330675	-10.83356029	-0.00423131	0.00403036	-0.00078352	-42.10541242	9.49905385	-4.50164235	-2.204098754	72.51621797	-12.04703383	28.54044164	88.53500219	2.052826886	0	34.32
2.79	-0.152246333	-6.443129097	-10.85616	-0.00423131	0.00403036	-0.00078352	-42.09076138	9.467222276	-4.339544223	-2.214995524	72.67674587	-12.01643109	28.76483541	88.57650447	1.983248753	0	34.32
2.8	-0.184631777	-6.491231881	-10.88016177	-0.00423131	0.00403036	-0.00078352	-42.07606388	9.43564071	-4.177912727	-2.225629879	72.83676007	-11.98569146	28.99908635	88.6174417	1.918663834	0	34.32
2.81	-0.217792562	-6.537424241	-10.90490418	-0.00423131	0.00403036	-0.00078352	-42.06176386	9.404263946	-4.017120466	-2.236032585	72.99668928	-11.95500176	29.24151803	88.65679817	1.861596571	0	34.32
2.82	-0.250605226	-6.581129805	-10.92961441	-0.00423131	0.00403036	-0.00078352	-42.04799273	9.373048534	-3.856897812	-2.246196201	73.15711381	-11.92435581	29.48996839	88.69343678	1.814882542	0	34.32
2.83	-0.281807188	-6.622461603	-10.95347655	-0.00423131	0.00403036	-0.00078352	-42.0346811	9.34204084	-3.696568059	-2.25602753	73.31873782	-11.89364624	29.74207185	88.72617513	1.781353629	0	34.32
2.84	-0.31011094	-6.662168137	-10.97571009	-0.00423131	0.00403036	-0.00078352	-42.02169601	9.311438932	-3.535343057	-2.265321362	73.48233044	-11.86276608	29.99552496	88.75387137	1.763428694	0	34.32
2.85	-0.334338251	-6.701490985	-10.99564829	-0.00423131	0.00403036	-0.00078352	-42.00897494	9.281612017	-3.372615343	-2.273763315	73.64864921	-11.83169825	30.24830282	88.77551244	1.762668717	0	34.32
2.86	-0.353556008	-6.741962215	-11.0128055	-0.00423131	0.00403036	-0.00078352	-41.99663062	9.253071445	-3.208188988	-2.280962846	73.8183615	-11.80057482	30.49880514	88.79029684	1.779371112	0	34.32
2.87	-0.367192955	-6.785175506	-11.02692334	-0.00423131	0.00403036	-0.00078352	-41.98500859	9.22639908	-3.042409155	-2.286510343	73.99197829	-11.76969657	30.74592491	88.79770416	1.812280536	0	34.32
2.88	-0.375117908	-6.832564055	-11.03798848	-0.00423131	0.00403036	-0.00078352	-41.97469027	9.202149194	-2.876174976	-2.290046422	74.16980936	-11.73951196	30.98904502	88.79754507	1.858481497	0	34.32
2.89	-0.377665236	-6.885212165	-11.04621891	-0.00423131	0.00403036	-0.00078352	-41.96644483	9.180746358	-2.710845817	-2.291328586	74.35194252	-11.71056382	31.22797783	88.78998814	1.913512373	0	34.32
2.9	-0.375601784	-6.943718259	-11.05202007	-0.00423131	0.00403036	-0.00078352	-41.96114237	9.162402191	-2.548071279	-2.290281205	74.53824292	-11.68341743	31.46286647	88.77556281	1.971705021	0	34.32
2.91	-0.370039553	-7.008117347	-11.05591796	-0.00423131	0.00403036	-0.00078352	-41.95964587	9.147068288	-2.389586216	-2.287019141	74.72836383	-11.65858568	31.69406658	88.75514099	2.026715309	0	34.32
2.92	-0.362308153	-7.077863093	-11.05847984	-0.00423131	0.00403036	-0.00078352	-41.96270048	9.134432783	-2.237012086	-2.281842072	74.92175869	-11.63646494	31.92202307	88.72990174	2.072175204	0	34.32
2.93	-0.353807939	-7.151864669	-11.06023598	-0.00423131	0.00403036	-0.00078352	-41.97083597	9.123957104	-2.091696732	-2.275203425	75.11768684	-11.61729034	32.14715186	88.70128344	2.102373922	0	34.32
2.94	-0.345867195	-7.228571524	-11.06161512	-0.00423131	0.00403036	-0.00078352	-41.98429373	9.114940904	-1.95461014	-2.26766274	75.31521088	-11.6011137	32.36973329	88.6709267	2.112869255	0	34.32
2.95	-0.339624065	-7.306098928	-11.06290353	-0.00423131	0.00403036	-0.00078352	-42.00298493	9.106599435	-1.826298741	-2.259831893	75.51319116	-11.58780274	32.58982247	88.64060831	2.100941923	0	34.32
2.96	-0.335947278	-7.382386946	-11.0642326	-0.00423131	0.00403036	-0.00078352	-42.02648279	9.098139088	-1.706889585	-2.252323828	75.71028968	-11.57705765	32.80718329	88.61216495	2.065832947	0	34.32
2.97	-0.335401057	-7.455384065	-11.06559446	-0.00423131	0.00403036	-0.00078352	-42.05404916	9.088821962	-1.596130418	-2.24570867	75.90499847	-11.5684409	33.02125421	88.58740528	2.008740154	0	34.32
